<svg width="1280" height="680" viewBox="0 0 1280 680" fill="none" xmlns="http://www.w3.org/2000/svg">
<g id="Frame 1">
<path id="shape" d="M1132.16 85.7126C704.993 28.2103 152.158 -0.287399 72.1581 77.7126C-7.84189 155.713 29.0547 497.296 72.1581 582.713C115.261 668.129 1147.05 680.022 1159.16 570.713C1229.14 412.611 1162.16 204.696 1100.16 168.713C1009.48 116.093 319.258 111.474 206.158 162.713C93.0579 213.951 151.158 376.712 206.158 496.713C261.158 616.713 413.459 455.984 625.159 347.713C625.159 347.713 351.634 306.905 439.158 334.713C526.683 362.521 526.516 379.307 511.158 464.713C495.8 550.118 625.159 347.713 625.159 358.713" stroke="black"/>
<g id="youtube">
<rect id="Rectangle 1" x="778" y="390" width="60" height="44.25" rx="10" stroke="#FF0707" stroke-width="4"/>
<path id="Polygon 1" d="M820.419 412.745L801.108 423.793L801.485 401.063L820.419 412.745Z" stroke="#FF0707" stroke-width="4"/>
</g>
<g id="insto">
<rect id="Rectangle 2" x="918.893" y="389.901" width="46" height="46" rx="15" transform="rotate(91.0765 918.893 389.901)" stroke="black" stroke-width="4"/>
<circle id="Ellipse 1" cx="895.43" cy="412.439" r="10.5" stroke="black" stroke-width="4"/>
<circle id="Ellipse 2" cx="907.888" cy="399.798" r="5.61968" fill="black"/>
</g>
<path id="face" d="M962.75 404.812H967.625V402.312C967.625 399.521 967.917 397.438 968.5 396.062C969.104 394.688 970.198 393.573 971.781 392.719C973.385 391.844 975.406 391.406 977.844 391.406C980.344 391.406 982.792 391.781 985.188 392.531L984 398.656C982.604 398.323 981.26 398.156 979.969 398.156C978.698 398.156 977.781 398.458 977.219 399.062C976.677 399.646 976.406 400.781 976.406 402.469V404.812H982.969V411.719H976.406V438H967.625V411.719H962.75V404.812Z" fill="black"/>
</g>
</svg>
