<svg width="500" height="100" viewBox="0 0 500 100" fill="none" xmlns="http://www.w3.org/2000/svg">
<g id="Frame 1">
<rect width="500" height="100" fill="white"/>
<g id="facebook">
<circle id="facebook-c" cx="141" cy="50" r="24" fill="#4567DE" stroke="#4567DE" stroke-width="2"/>
<path id="facebook-icon" d="M145.261 39.9812H148V35.2112C147.528 35.1462 145.903 35 144.01 35C140.062 35 137.357 37.4837 137.357 42.0487V46.25H133V51.5825H137.357V65H142.699V51.5838H146.88L147.544 46.2513H142.698V42.5775C142.699 41.0362 143.114 39.9812 145.261 39.9812V39.9812Z" fill="white"/>
</g>
<g id="insta">
<circle id="insta-c" cx="231" cy="50" r="24" fill="#EA6D6D" stroke="#EA6D6D" stroke-width="2"/>
<path id="insta-frame" d="M246.364 43.8201C246.293 42.2261 246.032 41.1302 245.657 40.1806C245.27 39.1727 244.675 38.2702 243.896 37.52C243.135 36.7582 242.213 36.1662 241.202 35.7912C240.232 35.4219 239.126 35.1641 237.508 35.0939C235.878 35.0176 235.361 35 231.227 35C227.093 35 226.576 35.0176 224.952 35.0879C223.334 35.1582 222.222 35.4162 221.258 35.7852C220.235 36.1662 219.319 36.7522 218.558 37.52C217.784 38.2702 217.184 39.1786 216.803 40.1749C216.428 41.1302 216.167 42.2201 216.095 43.8142C216.018 45.4201 216 45.9299 216 50.003C216 54.0761 216.018 54.5859 216.089 56.1858C216.161 57.7799 216.422 58.8757 216.797 59.8253C217.184 60.8333 217.784 61.7357 218.558 62.4859C219.319 63.2478 220.241 63.8398 221.252 64.2148C222.222 64.584 223.328 64.8418 224.946 64.9121C226.57 64.9826 227.087 65 231.221 65C235.355 65 235.872 64.9826 237.496 64.9121C239.114 64.8418 240.226 64.584 241.19 64.2148C243.236 63.4353 244.854 61.8413 245.645 59.8253C246.019 58.87 246.281 57.7799 246.353 56.1858C246.424 54.5859 246.442 54.0761 246.442 50.003C246.442 45.9299 246.436 45.4201 246.364 43.8201ZM243.623 56.0686C243.557 57.5338 243.307 58.3249 243.099 58.8524C242.588 60.1593 241.535 61.1966 240.208 61.7007C239.673 61.9058 238.864 62.1519 237.383 62.2162C235.777 62.2868 235.295 62.3042 231.233 62.3042C227.17 62.3042 226.683 62.2868 225.083 62.2162C223.596 62.1519 222.793 61.9058 222.257 61.7007C221.597 61.4603 220.996 61.0794 220.509 60.5812C220.003 60.0948 219.616 59.5087 219.372 58.8583C219.164 58.3309 218.915 57.5338 218.849 56.0746C218.778 54.4922 218.76 54.0174 218.76 50.0147C218.76 46.0119 218.778 45.5313 218.849 43.9549C218.915 42.4898 219.164 41.6986 219.372 41.1712C219.616 40.5206 220.003 39.9288 220.515 39.4481C221.008 38.9499 221.603 38.569 222.263 38.3288C222.799 38.1237 223.608 37.8776 225.089 37.8131C226.695 37.7428 227.176 37.7252 231.239 37.7252C235.307 37.7252 235.789 37.7428 237.389 37.8131C238.876 37.8776 239.679 38.1237 240.214 38.3288C240.874 38.569 241.475 38.9499 241.963 39.4481C242.469 39.9345 242.855 40.5206 243.099 41.1712C243.307 41.6986 243.557 42.4955 243.623 43.9549C243.694 45.5373 243.712 46.0119 243.712 50.0147C243.712 54.0174 243.694 54.4863 243.623 56.0686Z" fill="white"/>
<path id="insta-dot" d="M231 50C226.583 50 223 50.2239 223 50.5C223 50.7761 226.583 51 231 51C235.417 51 239 50.7761 239 50.5C239 50.2239 235.417 50 231 50ZM231 50.8243C228.135 50.8243 225.811 50.6791 225.811 50.5C225.811 50.3209 228.135 50.1757 231 50.1757C233.865 50.1757 236.189 50.3209 236.189 50.5C236.189 50.6791 233.865 50.8243 231 50.8243V50.8243Z" fill="white"/>
<path id="insta-dot_2" d="M241.184 41.9915C241.184 42.9851 240.366 43.7907 239.358 43.7907C238.349 43.7907 237.532 42.9851 237.532 41.9915C237.532 40.9977 238.349 40.1924 239.358 40.1924C240.366 40.1924 241.184 40.9977 241.184 41.9915V41.9915Z" fill="white"/>
</g>
<g id="twitter">
<circle id="twitter-circle" cx="331" cy="50" r="24" fill="#52E0FF" stroke="#52E0FF" stroke-width="2"/>
<path id="twitter-icon" d="M313.536 61.6843C316.955 63.8538 320.934 65 325.042 65C331.058 65 336.571 62.689 340.566 58.4933C344.39 54.4776 346.493 49.0818 346.388 43.606C347.838 42.3659 349.542 39.998 349.542 37.6901C349.542 36.8054 348.582 36.2438 347.804 36.6946C346.442 37.4947 345.2 37.704 343.923 37.3455C341.316 34.8037 337.434 34.2683 334.163 36.0315C331.304 37.5701 329.715 40.3857 329.858 43.4629C325.028 42.8736 320.566 40.4519 317.455 36.6885C316.944 36.0746 315.975 36.1469 315.569 36.8423C314.07 39.4087 314.086 42.3828 315.389 44.7845C314.769 44.8938 314.386 45.4153 314.386 45.98C314.386 48.394 315.472 50.6127 317.221 52.1267C316.895 52.4405 316.787 52.9067 316.926 53.3221C317.695 55.6331 319.437 57.4394 321.614 58.3441C319.246 59.4749 316.627 59.8519 314.296 59.5657C313.09 59.4026 312.495 61.0243 313.536 61.6843V61.6843ZM325.357 58.7395C326.22 58.0764 325.762 56.6947 324.679 56.6716C322.771 56.6316 321.034 55.6916 319.952 54.213C320.474 54.1791 321.014 54.0991 321.528 53.9606C322.699 53.6437 322.643 51.9543 321.454 51.7159C319.295 51.282 317.601 49.7095 316.966 47.6848C317.546 47.8278 318.137 47.9079 318.726 47.9186C319.894 47.9248 320.335 46.4277 319.383 45.8015C317.237 44.3876 316.321 41.8904 316.927 39.5426C320.675 43.3398 325.76 45.6277 331.139 45.8861C331.91 45.9338 332.489 45.2092 332.319 44.4753C331.589 41.3073 333.358 39.0871 335.258 38.064C337.138 37.0485 340.157 36.7316 342.471 39.1595C343.159 39.8841 345.479 39.9118 346.659 39.6364C346.13 40.6334 345.316 41.5796 344.554 42.112C344.23 42.3397 344.043 42.7182 344.063 43.1136C344.311 48.1679 342.428 53.1929 338.897 56.8993C335.34 60.6335 330.421 62.6906 325.043 62.6906C322.905 62.6906 320.808 62.3429 318.826 61.672C321.195 61.2135 323.446 60.2104 325.357 58.7395V58.7395Z" fill="white"/>
</g>
</g>
</svg>
