<svg width="500" height="500" viewBox="0 0 500 500" fill="none" xmlns="http://www.w3.org/2000/svg">
<g id="Frame 1">
<rect width="500" height="500" fill="white"/>
<g id="logo">
<rect id="black_rect" x="190" y="190" width="113" height="113" rx="25" fill="black"/>
<path id="R" d="M208.48 256.18V255.04C210.96 254.92 212.64 254.28 213.52 253.12C214.4 251.96 215.22 249.28 215.98 245.08L221.74 211.9C213.54 212.58 207.2 214.36 202.72 217.24C198.28 220.08 196.06 223.8 196.06 228.4C196.06 230.48 196.78 232.24 198.22 233.68C199.22 234.64 200.54 235.38 202.18 235.9C203.82 236.38 205.16 236.66 206.2 236.74C207.28 236.78 207.86 236.76 207.94 236.68V237.94C203.22 237.94 199.72 236.82 197.44 234.58C195.76 233.02 194.92 230.96 194.92 228.4C194.92 222.68 197.9 218.26 203.86 215.14C209.86 212.02 218.32 210.46 229.24 210.46C236.04 210.46 240.86 211.38 243.7 213.22C246.58 215.06 248.02 217.58 248.02 220.78C248.02 223.94 246.92 226.66 244.72 228.94C242.56 231.22 239.7 232.98 236.14 234.22C241.34 245.02 244.68 251.5 246.16 253.66C247.64 255.86 249.42 256.96 251.5 256.96C252.74 256.96 253.84 256.56 254.8 255.76C255.8 255 256.5 253.96 256.9 252.64H258.4C257.12 256.8 253.98 258.88 248.98 258.88C245.82 258.88 243.2 258.12 241.12 256.6C239.08 255.12 237.36 252.86 235.96 249.82L229.48 235.78C227.88 235.94 226.7 236.02 225.94 236.02C225.82 236.62 225.64 237.64 225.4 239.08C225.16 240.52 224.96 241.6 224.8 242.32C224 246.64 221.98 250.02 218.74 252.46C215.54 254.94 212.12 256.18 208.48 256.18ZM246.46 220.96C246.46 214.84 240.9 211.72 229.78 211.6L226.18 234.7C231.86 234.54 236.66 233.12 240.58 230.44C244.5 227.72 246.46 224.56 246.46 220.96Z" fill="#FFFAFA"/>
<path id="star " d="M294.936 252.869L275.562 269.171L292.192 292.159L268.989 276.242L252.178 298.399L260.233 272.175L246.065 265.596L261.394 262.592L263.274 247.084L270.868 260.735L294.936 252.869Z" fill="#FFFAFA"/>
</g>
</g>
</svg>
