<svg width="400" height="400" viewBox="0 0 400 400" fill="none" xmlns="http://www.w3.org/2000/svg">
<rect width="400" height="400" fill="#E5E5E5"/>
<g id="Frame 1">
<rect width="400" height="400" fill="white"/>
<g id="textshape">
<path id="Vector 1" d="M316 87.9717C307.263 161.75 219.539 96.7083 197.5 52.9717C175.461 9.23517 245.927 184.823 183 203.972C200.443 214.208 247.762 252.436 297 203.972C346.238 155.508 324.737 14.1933 316 87.9717Z" fill="#FBB64E"/>
<path id="HELL" d="M224.17 160V133.818H227.341V145.477H241.301V133.818H244.472V160H241.301V148.29H227.341V160H224.17ZM250.819 160V133.818H266.62V136.631H253.989V145.477H265.802V148.29H253.989V157.188H266.825V160H250.819ZM272.335 160V133.818H275.505V157.188H287.675V160H272.335ZM292.585 160V133.818H295.755V157.188H307.925V160H292.585Z" fill="#931919"/>
<path id="OOO......" d="M244.034 175.727C244.034 177.261 243.757 178.587 243.203 179.705C242.649 180.822 241.889 181.684 240.923 182.29C239.957 182.896 238.854 183.199 237.614 183.199C236.373 183.199 235.27 182.896 234.304 182.29C233.338 181.684 232.578 180.822 232.024 179.705C231.47 178.587 231.193 177.261 231.193 175.727C231.193 174.193 231.47 172.867 232.024 171.75C232.578 170.633 233.338 169.771 234.304 169.165C235.27 168.559 236.373 168.256 237.614 168.256C238.854 168.256 239.957 168.559 240.923 169.165C241.889 169.771 242.649 170.633 243.203 171.75C243.757 172.867 244.034 174.193 244.034 175.727ZM242.33 175.727C242.33 174.468 242.119 173.405 241.697 172.538C241.281 171.672 240.715 171.016 240 170.571C239.29 170.126 238.494 169.903 237.614 169.903C236.733 169.903 235.935 170.126 235.22 170.571C234.51 171.016 233.944 171.672 233.523 172.538C233.106 173.405 232.898 174.468 232.898 175.727C232.898 176.987 233.106 178.05 233.523 178.916C233.944 179.783 234.51 180.438 235.22 180.884C235.935 181.329 236.733 181.551 237.614 181.551C238.494 181.551 239.29 181.329 240 180.884C240.715 180.438 241.281 179.783 241.697 178.916C242.119 178.05 242.33 176.987 242.33 175.727ZM259.268 175.727C259.268 177.261 258.991 178.587 258.438 179.705C257.884 180.822 257.124 181.684 256.158 182.29C255.192 182.896 254.089 183.199 252.848 183.199C251.607 183.199 250.504 182.896 249.538 182.29C248.572 181.684 247.813 180.822 247.259 179.705C246.705 178.587 246.428 177.261 246.428 175.727C246.428 174.193 246.705 172.867 247.259 171.75C247.813 170.633 248.572 169.771 249.538 169.165C250.504 168.559 251.607 168.256 252.848 168.256C254.089 168.256 255.192 168.559 256.158 169.165C257.124 169.771 257.884 170.633 258.438 171.75C258.991 172.867 259.268 174.193 259.268 175.727ZM257.564 175.727C257.564 174.468 257.353 173.405 256.932 172.538C256.515 171.672 255.949 171.016 255.234 170.571C254.524 170.126 253.729 169.903 252.848 169.903C251.967 169.903 251.17 170.126 250.455 170.571C249.744 171.016 249.179 171.672 248.757 172.538C248.34 173.405 248.132 174.468 248.132 175.727C248.132 176.987 248.34 178.05 248.757 178.916C249.179 179.783 249.744 180.438 250.455 180.884C251.17 181.329 251.967 181.551 252.848 181.551C253.729 181.551 254.524 181.329 255.234 180.884C255.949 180.438 256.515 179.783 256.932 178.916C257.353 178.05 257.564 176.987 257.564 175.727ZM274.503 175.727C274.503 177.261 274.226 178.587 273.672 179.705C273.118 180.822 272.358 181.684 271.392 182.29C270.426 182.896 269.323 183.199 268.082 183.199C266.842 183.199 265.739 182.896 264.773 182.29C263.807 181.684 263.047 180.822 262.493 179.705C261.939 178.587 261.662 177.261 261.662 175.727C261.662 174.193 261.939 172.867 262.493 171.75C263.047 170.633 263.807 169.771 264.773 169.165C265.739 168.559 266.842 168.256 268.082 168.256C269.323 168.256 270.426 168.559 271.392 169.165C272.358 169.771 273.118 170.633 273.672 171.75C274.226 172.867 274.503 174.193 274.503 175.727ZM272.798 175.727C272.798 174.468 272.588 173.405 272.166 172.538C271.75 171.672 271.184 171.016 270.469 170.571C269.759 170.126 268.963 169.903 268.082 169.903C267.202 169.903 266.404 170.126 265.689 170.571C264.979 171.016 264.413 171.672 263.991 172.538C263.575 173.405 263.366 174.468 263.366 175.727C263.366 176.987 263.575 178.05 263.991 178.916C264.413 179.783 264.979 180.438 265.689 180.884C266.404 181.329 267.202 181.551 268.082 181.551C268.963 181.551 269.759 181.329 270.469 180.884C271.184 180.438 271.75 179.783 272.166 178.916C272.588 178.05 272.798 176.987 272.798 175.727ZM277.541 183.114C277.19 183.114 276.89 182.988 276.639 182.737C276.388 182.486 276.262 182.186 276.262 181.835C276.262 181.485 276.388 181.184 276.639 180.933C276.89 180.682 277.19 180.557 277.541 180.557C277.891 180.557 278.192 180.682 278.443 180.933C278.694 181.184 278.819 181.485 278.819 181.835C278.819 182.067 278.76 182.28 278.642 182.474C278.528 182.669 278.374 182.825 278.18 182.943C277.991 183.057 277.778 183.114 277.541 183.114ZM283.049 183.114C282.698 183.114 282.398 182.988 282.147 182.737C281.896 182.486 281.77 182.186 281.77 181.835C281.77 181.485 281.896 181.184 282.147 180.933C282.398 180.682 282.698 180.557 283.049 180.557C283.399 180.557 283.7 180.682 283.951 180.933C284.202 181.184 284.327 181.485 284.327 181.835C284.327 182.067 284.268 182.28 284.15 182.474C284.036 182.669 283.882 182.825 283.688 182.943C283.498 183.057 283.285 183.114 283.049 183.114ZM288.556 183.114C288.206 183.114 287.905 182.988 287.654 182.737C287.404 182.486 287.278 182.186 287.278 181.835C287.278 181.485 287.404 181.184 287.654 180.933C287.905 180.682 288.206 180.557 288.556 180.557C288.907 180.557 289.208 180.682 289.458 180.933C289.709 181.184 289.835 181.485 289.835 181.835C289.835 182.067 289.776 182.28 289.657 182.474C289.544 182.669 289.39 182.825 289.196 182.943C289.006 183.057 288.793 183.114 288.556 183.114ZM294.064 183.114C293.714 183.114 293.413 182.988 293.162 182.737C292.911 182.486 292.786 182.186 292.786 181.835C292.786 181.485 292.911 181.184 293.162 180.933C293.413 180.682 293.714 180.557 294.064 180.557C294.415 180.557 294.715 180.682 294.966 180.933C295.217 181.184 295.343 181.485 295.343 181.835C295.343 182.067 295.283 182.28 295.165 182.474C295.051 182.669 294.898 182.825 294.703 182.943C294.514 183.057 294.301 183.114 294.064 183.114ZM299.572 183.114C299.222 183.114 298.921 182.988 298.67 182.737C298.419 182.486 298.294 182.186 298.294 181.835C298.294 181.485 298.419 181.184 298.67 180.933C298.921 180.682 299.222 180.557 299.572 180.557C299.922 180.557 300.223 180.682 300.474 180.933C300.725 181.184 300.85 181.485 300.85 181.835C300.85 182.067 300.791 182.28 300.673 182.474C300.559 182.669 300.405 182.825 300.211 182.943C300.022 183.057 299.809 183.114 299.572 183.114ZM305.08 183.114C304.73 183.114 304.429 182.988 304.178 182.737C303.927 182.486 303.801 182.186 303.801 181.835C303.801 181.485 303.927 181.184 304.178 180.933C304.429 180.682 304.73 180.557 305.08 180.557C305.43 180.557 305.731 180.682 305.982 180.933C306.233 181.184 306.358 181.485 306.358 181.835C306.358 182.067 306.299 182.28 306.181 182.474C306.067 182.669 305.913 182.825 305.719 182.943C305.53 183.057 305.317 183.114 305.08 183.114Z" fill="#931919"/>
</g>
<g id="circleandrect" filter="url(#filter0_d_0_1)">
<rect id="Rectangle 1" x="29" y="20" width="98" height="88" rx="8" fill="#1D1212"/>
</g>
<path id="Ellipse 1" d="M110.5 64C110.5 80.4868 96.3164 94.5 78 94.5C59.6836 94.5 45.5 80.4868 45.5 64C45.5 47.5132 59.6836 33.5 78 33.5C96.3164 33.5 110.5 47.5132 110.5 64Z" stroke="#F23434" stroke-width="15"/>
<path id="pencil" d="M36 196C37.2087 188.613 35.7078 177.949 42.5 173C50.5722 167.119 63.3409 171.785 69.7222 178.167C72.3811 180.826 72.8436 184.426 72.9722 188.028C73.1119 191.938 73.7167 196.96 72.2778 200.667C71.2578 203.294 67.7804 207.894 65.6111 203.556C62.7696 197.873 62.3857 189.448 66.7222 184.389C69.7484 180.858 74.7593 176.375 79.7222 178.722C85.2562 181.34 90.1219 187.057 90.8889 193.278C91.2798 196.448 89.6066 203.268 85 202.5C83.2693 202.212 83.1281 196.272 83.0556 195.111C82.8446 191.735 82.9699 188.19 85.6111 185.722C89.2233 182.348 95.2817 181.378 99.1111 184.722C103.641 188.679 107.5 194.851 107.5 201C107.5 204.028 105.409 209.799 101.111 207.889C99.4111 207.133 99.5 204.006 99.5 202.528C99.5 199.383 101.374 198.814 104.222 198C112.122 195.743 116.773 200.085 121.389 206.167C124.347 210.064 125.748 215.029 129.611 218.278C133.167 221.268 138.626 221.652 142.5 219.5" stroke="black" stroke-width="3" stroke-linecap="round"/>
<path id="Star 1" d="M68 224L77.8786 256.822H109.846L83.9839 277.107L93.8625 309.928L68 289.643L42.1374 309.928L52.0161 277.107L26.1535 256.822H58.1214L68 224Z" fill="#115982"/>
</g>
<defs>
<filter id="filter0_d_0_1" x="25" y="20" width="106" height="96" filterUnits="userSpaceOnUse" color-interpolation-filters="sRGB">
<feFlood flood-opacity="0" result="BackgroundImageFix"/>
<feColorMatrix in="SourceAlpha" type="matrix" values="0 0 0 0 0 0 0 0 0 0 0 0 0 0 0 0 0 0 127 0" result="hardAlpha"/>
<feOffset dy="4"/>
<feGaussianBlur stdDeviation="2"/>
<feComposite in2="hardAlpha" operator="out"/>
<feColorMatrix type="matrix" values="0 0 0 0 0 0 0 0 0 0 0 0 0 0 0 0 0 0 0.25 0"/>
<feBlend mode="normal" in2="BackgroundImageFix" result="effect1_dropShadow_0_1"/>
<feBlend mode="normal" in="SourceGraphic" in2="effect1_dropShadow_0_1" result="shape"/>
</filter>
</defs>
</svg>
