<svg width="1166" height="622" viewBox="0 0 1166 622" fill="none" xmlns="http://www.w3.org/2000/svg">
<path id="shape" d="M1108 57.0003C680.835 -0.501987 128 -28.9997 48 49.0003C-32 127 4.89664 468.583 48 554C91.1034 639.417 1122.89 651.31 1135 542C1204.98 383.899 1138.01 175.983 1076 140C985.324 87.3808 295.1 82.7622 182 134C68.8998 185.238 127 348 182 468C237 588.001 389.301 427.272 601.001 319C601.001 319 327.475 278.192 415 306C502.524 333.809 502.358 350.595 487 436C471.642 521.406 601.001 319 601.001 330" stroke="black"/>
</svg>
