<svg width="1166" height="622" viewBox="0 0 1166 622" fill="none" xmlns="http://www.w3.org/2000/svg">
<path id="shape" d="M1108.16 56.7126C680.993 -0.7897 128.158 -29.2874 48.1581 48.7126C-31.8419 126.713 5.05474 468.296 48.1581 553.713C91.2615 639.129 1123.05 651.022 1135.16 541.713C1205.14 383.611 1138.16 175.696 1076.16 139.713C985.483 87.0931 295.258 82.4745 182.158 133.713C69.0579 184.951 127.158 347.712 182.158 467.713C237.158 587.713 389.459 426.984 601.159 318.713C601.159 318.713 327.634 277.905 415.158 305.713C502.683 333.521 502.516 350.307 487.158 435.713C471.8 521.118 602 309 602 320" stroke="black"/>
</svg>
