<svg width="500" height="500" viewBox="0 0 500 500" fill="none" xmlns="http://www.w3.org/2000/svg">
<g id="Frame 1">
<rect width="500" height="500" fill="white"/>
<path id="sign" d="M51.8594 252.713C96.4236 195.511 134.075 132.425 170.861 70.0229C172.835 66.6746 178.146 57.659 180.185 53.6661C180.216 53.6048 182.734 48.851 182.239 47.5027C181.835 46.3987 179.752 47.7073 178.842 48.4509C175.91 50.8447 171.456 56.0771 169.359 58.6443C143.325 90.5281 122.075 127.162 106.382 165.161C98.287 184.762 89.2169 205.842 85.8372 226.953C85.0363 231.956 84.0024 242.382 88.919 246.154C98.475 253.486 117.817 224.788 121.711 219.525C138.574 196.738 154.701 173.403 171.019 150.226C173.968 146.037 176.931 141.859 179.869 137.662C180.252 137.115 180.7 136.573 181.291 136.24C183.107 135.219 178.976 139.709 177.972 141.534C168.023 159.625 159.167 177.913 151.185 197.005C147.365 206.144 143.643 215.469 141.071 225.057C140.61 226.773 137.65 236.126 142.967 234.776C149.021 233.239 154.616 225.972 158.534 221.659C164.152 215.474 169.373 208.913 174.575 202.378C176.701 199.707 180.774 192.434 184.61 191.711C187.218 191.22 184.058 202.74 183.978 203.089C182.338 210.271 180.37 217.467 179.632 224.819C179.243 228.689 179.379 231.642 183.583 229.245C189.142 226.075 194.115 221.601 198.675 217.155C201.146 214.746 207.411 206.157 207.367 214.31C207.334 220.468 202.834 230.306 206.024 236.04C209.527 242.336 222.314 226.068 223.566 224.582C231.341 215.356 238.312 205.399 245.533 195.741C248.687 191.522 251.632 186.493 255.252 182.624C256.303 181.501 256.358 184.297 256.358 184.441C256.358 190.458 255.577 196.532 255.252 202.536C255.068 205.943 251.838 241.177 261.021 235.961C270.238 230.725 276.064 215.786 280.459 207.04C290.188 187.679 298.509 167.588 306.693 147.54C314.541 128.313 322.082 108.955 329.45 89.5404C334.259 76.869 339.756 64.0097 343.041 50.8215C346.124 38.4487 336.419 53.1225 335.219 55.0094C324.073 72.5351 315.529 91.7762 307.325 110.796C297.584 133.382 288.754 156.356 280.775 179.621C277.146 190.202 272.41 201.596 270.898 212.809C270.562 215.302 271.821 207.862 272.241 205.381C275.101 188.508 279.15 171.947 284.489 155.679C290.894 136.162 298.349 116.465 308.194 98.3904C312.585 90.3305 321.952 71.638 333.401 71.1291C346.214 70.5597 344.374 99.0004 344.306 105.107C344.045 128.342 340.662 151.632 337.747 174.643C335.59 191.676 332.13 209.162 332.295 226.4C332.3 226.969 332.331 234.914 334.586 236.119C336.611 237.201 341.168 232.157 341.382 231.931C355.748 216.775 365.683 197.836 379.548 182.229C383.051 178.286 387.49 173.384 393.06 172.588C397.115 172.009 401.015 174.253 404.597 175.749C415.726 180.399 425.628 179.228 437.31 177.172C447.988 175.292 458.579 173.174 469.312 171.64" stroke="black" stroke-linecap="round"/>
</g>
</svg>
