<svg width="673" height="739" viewBox="0 0 673 739" fill="none" xmlns="http://www.w3.org/2000/svg">
<g id="undraw_taken_re_yn20 1" clip-path="url(#clip0_212_47)">
<rect width="672.531" height="738.394" fill="white"/>
<g id="Group" opacity="0.1">
<path id="Vector" opacity="0.1" d="M337.55 1.34133C316.857 -1.45373 295.808 0.130426 275.766 5.99112C255.724 11.8518 237.138 21.8583 221.211 35.362C205.284 48.8656 192.372 65.5652 183.312 84.3784C174.252 103.192 169.246 123.698 168.619 144.57C168.589 145.24 168.579 145.91 168.569 146.58C181.531 144.72 194.954 143.127 208.734 141.796C210.42 107.025 224.225 73.9407 247.755 48.2849C271.285 22.6292 303.054 6.02064 337.55 1.34133V1.34133Z" fill="white"/>
</g>
<g id="C1">
<path id="C1-head" d="M326.245 722.025C349.448 722.025 368.257 703.215 368.257 680.012C368.257 656.81 349.448 638 326.245 638C303.042 638 284.233 656.81 284.233 680.012C284.233 703.215 303.042 722.025 326.245 722.025Z" fill="#2F2E41"/>
<g id="C1-r-leg">
<path id="C1-r-thi" d="M302.36 706.408L297.245 728.696L309.685 731.551L314.8 709.263L302.36 706.408Z" fill="#2F2E41"/>
<path id="C1-r-feet" d="M310.507 728.735C309.86 726.629 304.784 726.321 299.169 728.045C293.554 729.77 289.526 732.875 290.173 734.981C290.819 737.087 295.896 737.396 301.511 735.671C307.126 733.946 311.154 730.841 310.507 728.735Z" fill="#2F2E41"/>
</g>
<g id="C1-l-leg">
<path id="C1-l-thi" d="M343.346 707.993L332.5 714.722L344.555 734.154L355.401 727.425L343.346 707.993Z" fill="#2F2E41"/>
<path id="C1-l-feet" d="M353.623 735.405C359.494 735.219 364.197 733.283 364.127 731.082C364.058 728.88 359.241 727.246 353.37 727.432C347.499 727.618 342.796 729.553 342.866 731.755C342.936 733.957 347.752 735.591 353.623 735.405Z" fill="#2F2E41"/>
</g>
<path id="C1-eye-white" d="M323.304 684.094C331.234 684.094 337.662 677.666 337.662 669.736C337.662 661.806 331.234 655.377 323.304 655.377C315.374 655.377 308.945 661.806 308.945 669.736C308.945 677.666 315.374 684.094 323.304 684.094Z" fill="white"/>
<path id="C1-eye-ball" d="M333.158 673.158C335.02 671.297 335.009 668.269 333.135 666.394C331.26 664.52 328.232 664.509 326.37 666.37C324.509 668.232 324.52 671.26 326.394 673.135C328.269 675.009 331.297 675.02 333.158 673.158Z" fill="#3F3D56"/>
<path id="C1-r-arm" d="M383.604 702.011C386.367 699.639 382.481 690.58 374.924 681.777C367.368 672.975 359.001 667.762 356.238 670.134C353.475 672.507 357.36 681.566 364.917 690.368C372.474 699.171 380.84 704.384 383.604 702.011Z" fill="#2F2E41"/>
<path id="C1-r-arm_2" d="M287.69 690.368C295.247 681.566 299.133 672.507 296.369 670.134C293.606 667.762 285.24 672.975 277.683 681.777C270.126 690.58 266.24 699.639 269.004 702.011C271.767 704.384 280.133 699.171 287.69 690.368Z" fill="#2F2E41"/>
<path id="C1-mouth" d="M339.5 698C340.442 703.202 338.445 701.912 337 704C335.555 706.088 332.578 707.246 330.08 707.701C327.583 708.156 325.007 707.6 322.919 706.155C320.831 704.71 319.403 702.495 318.948 699.998L318.948 698C318.948 696 319.298 693.442 324.5 692.5C329.702 691.558 338.558 692.798 339.5 698Z" fill="white"/>
</g>
<path id="Vector_2" d="M266 495.394C265.47 495.394 264.961 495.183 264.586 494.808C264.211 494.433 264 493.924 264 493.394V375.394C264 374.864 264.211 374.355 264.586 373.98C264.961 373.605 265.47 373.394 266 373.394C266.53 373.394 267.039 373.605 267.414 373.98C267.789 374.355 268 374.864 268 375.394V493.394C268 493.924 267.789 494.433 267.414 494.808C267.039 495.183 266.53 495.394 266 495.394Z" fill="#CCCCCC"/>
<path id="Vector_3" d="M236 601.394C235.47 601.394 234.961 601.183 234.586 600.808C234.211 600.433 234 599.924 234 599.394V513.394C234 512.864 234.211 512.355 234.586 511.98C234.961 511.605 235.47 511.394 236 511.394C236.53 511.394 237.039 511.605 237.414 511.98C237.789 512.355 238 512.864 238 513.394V599.394C238 599.924 237.789 600.433 237.414 600.808C237.039 601.183 236.53 601.394 236 601.394V601.394Z" fill="#CCCCCC"/>
<path id="Vector_4" d="M313 530.394C312.47 530.394 311.961 530.183 311.586 529.808C311.211 529.433 311 528.924 311 528.394V410.394C311 409.864 311.211 409.355 311.586 408.98C311.961 408.605 312.47 408.394 313 408.394C313.53 408.394 314.039 408.605 314.414 408.98C314.789 409.355 315 409.864 315 410.394V528.394C315 528.924 314.789 529.433 314.414 529.808C314.039 530.183 313.53 530.394 313 530.394Z" fill="#CCCCCC"/>
<path id="Vector_5" d="M284 615.394C283.47 615.394 282.961 615.183 282.586 614.808C282.211 614.433 282 613.924 282 613.394V565.394C282 564.864 282.211 564.355 282.586 563.98C282.961 563.605 283.47 563.394 284 563.394C284.53 563.394 285.039 563.605 285.414 563.98C285.789 564.355 286 564.864 286 565.394V613.394C286 613.924 285.789 614.433 285.414 614.808C285.039 615.183 284.53 615.394 284 615.394V615.394Z" fill="#CCCCCC"/>
<path id="Vector_6" d="M325 369.394C324.47 369.394 323.961 369.183 323.586 368.808C323.211 368.433 323 367.924 323 367.394V319.394C323 318.864 323.211 318.355 323.586 317.98C323.961 317.605 324.47 317.394 325 317.394C325.53 317.394 326.039 317.605 326.414 317.98C326.789 318.355 327 318.864 327 319.394V367.394C327 367.924 326.789 368.433 326.414 368.808C326.039 369.183 325.53 369.394 325 369.394V369.394Z" fill="#CCCCCC"/>
<path id="Vector_7" d="M225 390.394C224.47 390.394 223.961 390.183 223.586 389.808C223.211 389.433 223 388.924 223 388.394V340.394C223 339.864 223.211 339.355 223.586 338.98C223.961 338.605 224.47 338.394 225 338.394C225.53 338.394 226.039 338.605 226.414 338.98C226.789 339.355 227 339.864 227 340.394V388.394C227 388.924 226.789 389.433 226.414 389.808C226.039 390.183 225.53 390.394 225 390.394V390.394Z" fill="#CCCCCC"/>
<path id="Vector_8" d="M399 395.394C398.47 395.394 397.961 395.183 397.586 394.808C397.211 394.433 397 393.924 397 393.394V345.394C397 344.864 397.211 344.355 397.586 343.98C397.961 343.605 398.47 343.394 399 343.394C399.53 343.394 400.039 343.605 400.414 343.98C400.789 344.355 401 344.864 401 345.394V393.394C401 393.924 400.789 394.433 400.414 394.808C400.039 395.183 399.53 395.394 399 395.394Z" fill="#CCCCCC"/>
<path id="Vector_9" d="M395 545.394C394.47 545.394 393.961 545.183 393.586 544.808C393.211 544.433 393 543.924 393 543.394V485.394C393 484.864 393.211 484.355 393.586 483.98C393.961 483.605 394.47 483.394 395 483.394C395.53 483.394 396.039 483.605 396.414 483.98C396.789 484.355 397 484.864 397 485.394V543.394C397 543.924 396.789 544.433 396.414 544.808C396.039 545.183 395.53 545.394 395 545.394Z" fill="#CCCCCC"/>
<path id="Vector_10" d="M355 596.394C354.47 596.394 353.961 596.183 353.586 595.808C353.211 595.433 353 594.924 353 594.394V508.394C353 507.864 353.211 507.355 353.586 506.98C353.961 506.605 354.47 506.394 355 506.394C355.53 506.394 356.039 506.605 356.414 506.98C356.789 507.355 357 507.864 357 508.394V594.394C357 594.924 356.789 595.433 356.414 595.808C356.039 596.183 355.53 596.394 355 596.394Z" fill="#CCCCCC"/>
<path id="Vector_11" d="M363 449.394C362.47 449.394 361.961 449.183 361.586 448.808C361.211 448.433 361 447.924 361 447.394V329.394C361 328.864 361.211 328.355 361.586 327.98C361.961 327.605 362.47 327.394 363 327.394C363.53 327.394 364.039 327.605 364.414 327.98C364.789 328.355 365 328.864 365 329.394V447.394C365 447.924 364.789 448.433 364.414 448.808C364.039 449.183 363.53 449.394 363 449.394Z" fill="#CCCCCC"/>
<g id="C2">
<path id="C2-l-arm" d="M608.193 700.491C611.056 698.094 607.187 688.759 599.553 679.641C591.918 670.522 583.408 665.073 580.545 667.47C577.683 669.866 581.551 679.202 589.186 688.32C596.821 697.439 605.331 702.888 608.193 700.491Z" fill="#2F2E41"/>
<path id="C2-head" d="M589.42 690.121C596.941 667.557 584.746 643.167 562.181 635.645C539.617 628.123 515.227 640.318 507.705 662.883C500.183 685.448 512.378 709.838 534.943 717.36C557.508 724.881 581.898 712.686 589.42 690.121Z" fill="#2F2E41"/>
<g id="C2-l-leg">
<path id="Vector_12" d="M566.791 710.302H553.707V733.744H566.791V710.302Z" fill="#2F2E41"/>
<path id="Vector_13" d="M555.888 738.105C561.91 738.105 566.791 736.274 566.791 734.016C566.791 731.758 561.91 729.928 555.888 729.928C549.866 729.928 544.985 731.758 544.985 734.016C544.985 736.274 549.866 738.105 555.888 738.105Z" fill="#2F2E41"/>
</g>
<g id="C2-r-leg">
<path id="Vector_14" d="M540.624 710.302H527.54V733.744H540.624V710.302Z" fill="#2F2E41"/>
<path id="Vector_15" d="M529.721 737.56C535.742 737.56 540.624 735.729 540.624 733.471C540.624 731.213 535.742 729.382 529.721 729.382C523.699 729.382 518.817 731.213 518.817 733.471C518.817 735.729 523.699 737.56 529.721 737.56Z" fill="#2F2E41"/>
</g>
<path id="C2-r-arm" d="M509.809 672.465C506.81 670.241 498.636 676.183 491.552 685.735C484.468 695.288 481.157 704.835 484.156 707.059C487.154 709.283 495.328 703.341 502.412 693.789C509.496 684.236 512.808 674.689 509.809 672.465Z" fill="#2F2E41"/>
<path id="C2-eye-white" d="M542.124 681.774C550.054 681.774 556.482 675.345 556.482 667.415C556.482 659.485 550.054 653.056 542.124 653.056C534.194 653.056 527.765 659.485 527.765 667.415C527.765 675.345 534.194 681.774 542.124 681.774Z" fill="white"/>
<path id="C2-eye-ball" d="M534.786 671.572C537.43 671.572 539.572 669.43 539.572 666.786C539.572 664.143 537.43 662 534.786 662C532.143 662 530 664.143 530 666.786C530 669.43 532.143 671.572 534.786 671.572Z" fill="#3F3D56"/>
<path id="C2-mouth" d="M537.794 702C539.838 702 540.99 699.456 542 694.731C542 690.006 540.149 690.006 538.635 690.006C536.591 690.006 533.419 689.642 534.092 694.731C534.092 697.742 535.749 702 537.794 702Z" fill="white"/>
</g>
<g id="spaceship">
<g id="Vector_16">
<mask id="path-32-inside-1_212_47" fill="white">
<path d="M541.18 189.23C519.72 183.412 497.953 178.792 475.98 175.39C439.966 169.809 403.658 166.32 367.24 164.94C352.07 164.32 336.62 164 321 164C308.62 164 296.34 164.2 284.23 164.6C248.706 165.65 213.266 168.644 178.07 173.57C152.016 177.158 126.214 182.388 100.82 189.23C41.6098 205.6 9 227.54 9 251C9 274.46 41.6099 296.4 100.82 312.77C142.46 324.29 193.8 332.14 249.74 335.74C272.83 337.24 296.7 338 321 338C345.38 338 369.33 337.23 392.49 335.73C443.4 332.44 490.5 325.63 529.92 315.73C530.13 315.67 530.33 315.62 530.54 315.57C533.2 314.91 535.82 314.22 538.41 313.53C539.34 313.27 540.26 313.02 541.18 312.77C541.232 312.749 541.285 312.732 541.34 312.72C542.22 312.48 543.09 312.23 543.96 311.99C545.7 311.49 547.42 311 549.11 310.49C549.19 310.47 549.26 310.45 549.33 310.43C550.8 309.99 552.24 309.55 553.67 309.11C554.84 308.74 556 308.38 557.15 308.01C557.99 307.74 558.82 307.47 559.64 307.2C560.24 307 560.83 306.81 561.41 306.61C562.2 306.35 562.99 306.08 563.77 305.81C564.1 305.7 564.43 305.59 564.75 305.47C565.5 305.22 566.23 304.96 566.96 304.7C567.75 304.42 568.54 304.13 569.32 303.85C569.97 303.62 570.62 303.38 571.26 303.14C571.8 302.93 572.33 302.73 572.87 302.53C574.34 301.98 575.78 301.41 577.2 300.85C577.91 300.56 578.62 300.28 579.32 299.99C580.01 299.71 580.71 299.42 581.39 299.13C582.51 298.66 583.61 298.19 584.69 297.72C585.21 297.48 585.74 297.25 586.25 297.03C586.64 296.85 587.02 296.68 587.41 296.5C587.69 296.38 587.97 296.25 588.24 296.12C589.25 295.66 590.25 295.19 591.23 294.72C594.99 292.92 598.5 291.08 601.76 289.2C622.21 277.49 633 264.5 633 251C633 227.54 600.39 205.6 541.18 189.23ZM540.64 310.85C498.95 322.38 447.47 330.23 391.38 333.8C368.57 335.25 344.99 336 321 336C297.09 336 273.59 335.26 250.85 333.81C194.67 330.25 143.11 322.4 101.36 310.85C43.0899 294.73 11 273.48 11 251C11.0033 249.014 11.2519 247.035 11.7402 245.11C16.8398 224.83 48.21 205.85 101.36 191.15C126.562 184.361 152.166 179.161 178.02 175.58C213.428 170.626 249.082 167.622 284.82 166.58C296.74 166.19 308.8 165.997 321 166C336.41 166 351.65 166.31 366.63 166.91C403.26 168.278 439.779 171.784 476 177.41C497.783 180.797 519.363 185.384 540.64 191.15C593.78 205.85 625.14 224.82 630.25 245.09C630.746 247.021 630.998 249.006 631 251C631 273.48 598.91 294.73 540.64 310.85Z"/>
<path d="M540.64 310.85C498.95 322.38 447.47 330.23 391.38 333.8C368.57 335.25 344.99 336 321 336C297.09 336 273.59 335.26 250.85 333.81C194.67 330.25 143.11 322.4 101.36 310.85C43.0899 294.73 11 273.48 11 251C11.0033 249.014 11.2519 247.035 11.7402 245.11C16.8398 224.83 48.21 205.85 101.36 191.15C126.562 184.361 152.166 179.161 178.02 175.58C213.428 170.626 249.082 167.622 284.82 166.58C296.74 166.19 308.8 165.997 321 166C336.41 166 351.65 166.31 366.63 166.91C403.26 168.278 439.779 171.784 476 177.41C497.783 180.797 519.363 185.384 540.64 191.15C593.78 205.85 625.14 224.82 630.25 245.09C630.746 247.021 630.998 249.006 631 251C631 273.48 598.91 294.73 540.64 310.85Z"/>
</mask>
<path d="M541.18 189.23C519.72 183.412 497.953 178.792 475.98 175.39C439.966 169.809 403.658 166.32 367.24 164.94C352.07 164.32 336.62 164 321 164C308.62 164 296.34 164.2 284.23 164.6C248.706 165.65 213.266 168.644 178.07 173.57C152.016 177.158 126.214 182.388 100.82 189.23C41.6098 205.6 9 227.54 9 251C9 274.46 41.6099 296.4 100.82 312.77C142.46 324.29 193.8 332.14 249.74 335.74C272.83 337.24 296.7 338 321 338C345.38 338 369.33 337.23 392.49 335.73C443.4 332.44 490.5 325.63 529.92 315.73C530.13 315.67 530.33 315.62 530.54 315.57C533.2 314.91 535.82 314.22 538.41 313.53C539.34 313.27 540.26 313.02 541.18 312.77C541.232 312.749 541.285 312.732 541.34 312.72C542.22 312.48 543.09 312.23 543.96 311.99C545.7 311.49 547.42 311 549.11 310.49C549.19 310.47 549.26 310.45 549.33 310.43C550.8 309.99 552.24 309.55 553.67 309.11C554.84 308.74 556 308.38 557.15 308.01C557.99 307.74 558.82 307.47 559.64 307.2C560.24 307 560.83 306.81 561.41 306.61C562.2 306.35 562.99 306.08 563.77 305.81C564.1 305.7 564.43 305.59 564.75 305.47C565.5 305.22 566.23 304.96 566.96 304.7C567.75 304.42 568.54 304.13 569.32 303.85C569.97 303.62 570.62 303.38 571.26 303.14C571.8 302.93 572.33 302.73 572.87 302.53C574.34 301.98 575.78 301.41 577.2 300.85C577.91 300.56 578.62 300.28 579.32 299.99C580.01 299.71 580.71 299.42 581.39 299.13C582.51 298.66 583.61 298.19 584.69 297.72C585.21 297.48 585.74 297.25 586.25 297.03C586.64 296.85 587.02 296.68 587.41 296.5C587.69 296.38 587.97 296.25 588.24 296.12C589.25 295.66 590.25 295.19 591.23 294.72C594.99 292.92 598.5 291.08 601.76 289.2C622.21 277.49 633 264.5 633 251C633 227.54 600.39 205.6 541.18 189.23ZM540.64 310.85C498.95 322.38 447.47 330.23 391.38 333.8C368.57 335.25 344.99 336 321 336C297.09 336 273.59 335.26 250.85 333.81C194.67 330.25 143.11 322.4 101.36 310.85C43.0899 294.73 11 273.48 11 251C11.0033 249.014 11.2519 247.035 11.7402 245.11C16.8398 224.83 48.21 205.85 101.36 191.15C126.562 184.361 152.166 179.161 178.02 175.58C213.428 170.626 249.082 167.622 284.82 166.58C296.74 166.19 308.8 165.997 321 166C336.41 166 351.65 166.31 366.63 166.91C403.26 168.278 439.779 171.784 476 177.41C497.783 180.797 519.363 185.384 540.64 191.15C593.78 205.85 625.14 224.82 630.25 245.09C630.746 247.021 630.998 249.006 631 251C631 273.48 598.91 294.73 540.64 310.85Z" fill="white"/>
<path d="M540.64 310.85C498.95 322.38 447.47 330.23 391.38 333.8C368.57 335.25 344.99 336 321 336C297.09 336 273.59 335.26 250.85 333.81C194.67 330.25 143.11 322.4 101.36 310.85C43.0899 294.73 11 273.48 11 251C11.0033 249.014 11.2519 247.035 11.7402 245.11C16.8398 224.83 48.21 205.85 101.36 191.15C126.562 184.361 152.166 179.161 178.02 175.58C213.428 170.626 249.082 167.622 284.82 166.58C296.74 166.19 308.8 165.997 321 166C336.41 166 351.65 166.31 366.63 166.91C403.26 168.278 439.779 171.784 476 177.41C497.783 180.797 519.363 185.384 540.64 191.15C593.78 205.85 625.14 224.82 630.25 245.09C630.746 247.021 630.998 249.006 631 251C631 273.48 598.91 294.73 540.64 310.85Z" fill="white"/>
<path d="M541.18 189.23C519.72 183.412 497.953 178.792 475.98 175.39C439.966 169.809 403.658 166.32 367.24 164.94C352.07 164.32 336.62 164 321 164C308.62 164 296.34 164.2 284.23 164.6C248.706 165.65 213.266 168.644 178.07 173.57C152.016 177.158 126.214 182.388 100.82 189.23C41.6098 205.6 9 227.54 9 251C9 274.46 41.6099 296.4 100.82 312.77C142.46 324.29 193.8 332.14 249.74 335.74C272.83 337.24 296.7 338 321 338C345.38 338 369.33 337.23 392.49 335.73C443.4 332.44 490.5 325.63 529.92 315.73C530.13 315.67 530.33 315.62 530.54 315.57C533.2 314.91 535.82 314.22 538.41 313.53C539.34 313.27 540.26 313.02 541.18 312.77C541.232 312.749 541.285 312.732 541.34 312.72C542.22 312.48 543.09 312.23 543.96 311.99C545.7 311.49 547.42 311 549.11 310.49C549.19 310.47 549.26 310.45 549.33 310.43C550.8 309.99 552.24 309.55 553.67 309.11C554.84 308.74 556 308.38 557.15 308.01C557.99 307.74 558.82 307.47 559.64 307.2C560.24 307 560.83 306.81 561.41 306.61C562.2 306.35 562.99 306.08 563.77 305.81C564.1 305.7 564.43 305.59 564.75 305.47C565.5 305.22 566.23 304.96 566.96 304.7C567.75 304.42 568.54 304.13 569.32 303.85C569.97 303.62 570.62 303.38 571.26 303.14C571.8 302.93 572.33 302.73 572.87 302.53C574.34 301.98 575.78 301.41 577.2 300.85C577.91 300.56 578.62 300.28 579.32 299.99C580.01 299.71 580.71 299.42 581.39 299.13C582.51 298.66 583.61 298.19 584.69 297.72C585.21 297.48 585.74 297.25 586.25 297.03C586.64 296.85 587.02 296.68 587.41 296.5C587.69 296.38 587.97 296.25 588.24 296.12C589.25 295.66 590.25 295.19 591.23 294.72C594.99 292.92 598.5 291.08 601.76 289.2C622.21 277.49 633 264.5 633 251C633 227.54 600.39 205.6 541.18 189.23ZM540.64 310.85C498.95 322.38 447.47 330.23 391.38 333.8C368.57 335.25 344.99 336 321 336C297.09 336 273.59 335.26 250.85 333.81C194.67 330.25 143.11 322.4 101.36 310.85C43.0899 294.73 11 273.48 11 251C11.0033 249.014 11.2519 247.035 11.7402 245.11C16.8398 224.83 48.21 205.85 101.36 191.15C126.562 184.361 152.166 179.161 178.02 175.58C213.428 170.626 249.082 167.622 284.82 166.58C296.74 166.19 308.8 165.997 321 166C336.41 166 351.65 166.31 366.63 166.91C403.26 168.278 439.779 171.784 476 177.41C497.783 180.797 519.363 185.384 540.64 191.15C593.78 205.85 625.14 224.82 630.25 245.09C630.746 247.021 630.998 249.006 631 251C631 273.48 598.91 294.73 540.64 310.85Z" stroke="#2F2E41" stroke-width="2" mask="url(#path-32-inside-1_212_47)"/>
<path d="M540.64 310.85C498.95 322.38 447.47 330.23 391.38 333.8C368.57 335.25 344.99 336 321 336C297.09 336 273.59 335.26 250.85 333.81C194.67 330.25 143.11 322.4 101.36 310.85C43.0899 294.73 11 273.48 11 251C11.0033 249.014 11.2519 247.035 11.7402 245.11C16.8398 224.83 48.21 205.85 101.36 191.15C126.562 184.361 152.166 179.161 178.02 175.58C213.428 170.626 249.082 167.622 284.82 166.58C296.74 166.19 308.8 165.997 321 166C336.41 166 351.65 166.31 366.63 166.91C403.26 168.278 439.779 171.784 476 177.41C497.783 180.797 519.363 185.384 540.64 191.15C593.78 205.85 625.14 224.82 630.25 245.09C630.746 247.021 630.998 249.006 631 251C631 273.48 598.91 294.73 540.64 310.85Z" stroke="#2F2E41" stroke-width="2" mask="url(#path-32-inside-1_212_47)"/>
</g>
<path id="Vector_17" d="M631.43 267.162C631.43 280.522 620.42 293.162 600.76 304.452C597.49 306.332 593.97 308.172 590.23 309.972C589.25 310.442 588.25 310.912 587.24 311.372C586.97 311.502 586.69 311.632 586.41 311.752C586.02 311.932 585.64 312.102 585.25 312.282C584.74 312.502 584.21 312.732 583.69 312.972C582.61 313.442 581.51 313.912 580.39 314.382C579.71 314.672 579.01 314.962 578.32 315.242C577.62 315.532 576.91 315.812 576.2 316.102C574.78 316.662 573.34 317.232 571.87 317.782C571.33 317.982 570.8 318.182 570.26 318.392C569.62 318.632 568.97 318.872 568.32 319.102C567.54 319.382 566.75 319.672 565.96 319.952C565.23 320.212 564.5 320.472 563.75 320.722C563.43 320.842 563.1 320.952 562.77 321.062C561.99 321.332 561.2 321.602 560.41 321.862C559.83 322.062 559.24 322.252 558.64 322.452C557.82 322.722 556.99 322.992 556.15 323.262C555 323.632 553.84 323.992 552.67 324.362C551.24 324.802 549.8 325.242 548.33 325.682C548.26 325.702 548.19 325.722 548.11 325.742C546.42 326.252 544.7 326.742 542.96 327.242C542.09 327.482 541.22 327.732 540.34 327.972C540.285 327.984 540.232 328.001 540.18 328.022C539.26 328.272 538.34 328.522 537.41 328.782C534.83 329.462 532.2 330.152 529.54 330.822C529.33 330.872 529.13 330.922 528.92 330.982C490.57 340.562 443.52 347.542 391.45 350.912C368.64 352.382 344.86 353.162 320.43 353.162C295.78 353.162 271.8 352.372 248.81 350.872C111.57 341.922 9.43018 307.842 9.43018 267.162C9.44098 264.687 9.81828 262.227 10.5498 259.862C10.6099 260.032 10.6699 260.192 10.7402 260.362C25.0098 297.842 126.28 328.132 257.68 335.522C277.81 336.662 298.66 337.252 320 337.252C341.43 337.252 362.36 336.652 382.57 335.512C513.86 328.092 615.03 297.792 629.25 260.342C629.49 259.742 629.7 259.142 629.88 258.542C630.894 261.303 631.418 264.22 631.43 267.162Z" fill="#3F3D56"/>
<path id="Vector_18" d="M99.6693 256.398C83.0266 256.398 65.3386 252.817 65.3386 246.181C65.3386 239.545 83.0266 235.964 99.6693 235.964C116.312 235.964 134 239.545 134 246.181C134 252.817 116.312 256.398 99.6693 256.398ZM99.6693 237.964C80.6163 237.964 67.3386 242.295 67.3386 246.181C67.3386 250.067 80.6163 254.398 99.6693 254.398C118.722 254.398 132 250.067 132 246.181C132 242.295 118.722 237.964 99.6693 237.964V237.964Z" fill="#3F3D56"/>
<path id="Vector_19" d="M170.669 303.398C154.027 303.398 136.339 299.817 136.339 293.181C136.339 286.545 154.027 282.964 170.669 282.964C187.312 282.964 205 286.545 205 293.181C205 299.817 187.312 303.398 170.669 303.398ZM170.669 284.964C151.616 284.964 138.339 289.295 138.339 293.181C138.339 297.067 151.616 301.398 170.669 301.398C189.722 301.398 203 297.067 203 293.181C203 289.295 189.722 284.964 170.669 284.964V284.964Z" fill="#3F3D56"/>
<path id="Vector_20" d="M539.669 256.398C523.027 256.398 505.339 252.817 505.339 246.181C505.339 239.545 523.027 235.964 539.669 235.964C556.312 235.964 574 239.545 574 246.181C574 252.817 556.312 256.398 539.669 256.398ZM539.669 237.964C520.616 237.964 507.339 242.295 507.339 246.181C507.339 250.067 520.616 254.398 539.669 254.398C558.722 254.398 572 250.067 572 246.181C572 242.295 558.722 237.964 539.669 237.964V237.964Z" fill="#3F3D56"/>
<path id="Vector_21" d="M468.669 303.398C452.027 303.398 434.339 299.817 434.339 293.181C434.339 286.545 452.027 282.964 468.669 282.964C485.312 282.964 503 286.545 503 293.181C503 299.817 485.312 303.398 468.669 303.398ZM468.669 284.964C449.616 284.964 436.339 289.295 436.339 293.181C436.339 297.067 449.616 301.398 468.669 301.398C487.722 301.398 501 297.067 501 293.181C501 289.295 487.722 284.964 468.669 284.964V284.964Z" fill="#0E0E0F"/>
<path id="Vector_22" d="M319.669 325.398C303.027 325.398 285.339 321.817 285.339 315.181C285.339 308.545 303.027 304.964 319.669 304.964C336.312 304.964 354 308.545 354 315.181C354 321.817 336.312 325.398 319.669 325.398ZM319.669 306.964C300.616 306.964 287.339 311.295 287.339 315.181C287.339 319.067 300.616 323.398 319.669 323.398C338.722 323.398 352 319.067 352 315.181C352 311.295 338.722 306.964 319.669 306.964V306.964Z" fill="#3F3D56"/>
<path id="Vector_23" d="M470.725 246.96C424.688 248.003 374.065 249.149 320.456 250.363C271.394 251.475 225.949 252.504 181.76 251.581C181.754 250.876 181.747 250.172 181.76 249.467C181.956 208.573 196.905 169.442 223.411 140.439C249.917 111.435 285.878 94.8596 323.608 94.255C361.338 93.6504 397.843 109.065 425.321 137.203C452.799 165.342 469.047 202.059 470.633 242.925C470.659 243.639 470.709 246.256 470.725 246.96Z" fill="#6C63FF"/>
</g>
</g>
<defs>
<clipPath id="clip0_212_47">
<rect width="672.531" height="738.394" fill="white"/>
</clipPath>
</defs>
</svg>
